<svg xmlns="http://www.w3.org/2000/svg" xmlns:xlink="http://www.w3.org/1999/xlink" viewBox="0 0 224 136">
  <defs>
    <rect id="a" width="223.423" height="136"/>
  </defs>
  <g fill="none" fill-rule="evenodd">
    <mask id="b" fill="white">
      <use xlink:href="#a"/>
    </mask>
    <g stroke="#1256AE" stroke-linejoin="round" stroke-width="3" mask="url(#b)" opacity=".1">
      <g opacity=".3" transform="translate(-23 -37)">
        <path d="M104,231 C81.8105263,194.341034 64.0350877,171.099729 50.6736842,161.276084 C37.3122807,151.45244 21.0877193,150.374235 2,158.041469"/>
        <path d="M115 228C113.774526 225.490901 104.39042 209.806536 86.8476821 180.946905 60.5335746 137.657458 47.8675497 119.015346 6 121.166359M150.285512 234C124.713851 192.19138 119.336633 167.082179 134.153857 158.672399 148.971081 150.262619 186.253129 173.569724 246 228.593713M260 223C225.814144 176.39999 191.86735 145.537846 158.159619 130.41357 107.598021 107.727156 23.6872841 72.4119548 53.0919012 0"/>
        <path d="M270,228 C239.368827,175.495268 202.994309,136.536278 160.876446,111.123028 C97.6996516,73.0031546 107.212067,18.7003155 113.67333,0"/>
        <path d="M284.623596 220C244.001875 151.42372 207.201415 104.142179 174.222216 78.1553783 124.753418 39.1751769 238.028092-36.6196592 290 146.370731M133 231C106.568202 174.151048 81.4579946 131.574301 57.6693767 103.269759 21.9864499 60.812947 4.68563686 53.8350226 0 28"/>
        <path d="M285,180 C242.543323,123.564328 213.324543,89.4666343 197.343659,77.7069189 C173.372333,60.0673459 209.508212,8.93872053 285,149.335322"/>
        <path d="M276,225 C245.15215,164.89071 209.623109,121.251366 169.412876,94.0819672 C109.097527,53.3278689 142.165942,18.704918 162.931227,5"/>
      </g>
    </g>
  </g>
</svg>
