<?xml version="1.0" encoding="UTF-8"?>
<svg width="263px" height="69px" viewBox="0 0 263 69" version="1.1" xmlns="http://www.w3.org/2000/svg" xmlns:xlink="http://www.w3.org/1999/xlink">
    <!-- Generator: Sketch 54.1 (76490) - https://sketchapp.com -->
    <title>Group 31 Copy 2</title>
    <desc>Created with Sketch.</desc>
    <defs>
        <polygon id="path-1" points="0 0.273275177 254.640348 0.273275177 254.640348 62.8722319 0 62.8722319"></polygon>
        <polygon id="path-3" points="0.305623834 0.103357143 73.9827461 0.103357143 73.9827461 19.8290233 0.305623834 19.8290233"></polygon>
    </defs>
    <g id="Page-1" stroke="none" stroke-width="1" fill="none" fill-rule="evenodd">
        <g id="Home_page" transform="translate(-150.000000, -4974.000000)">
            <g id="Group-31-Copy-2" transform="translate(150.000000, 4974.000000)">
                <g id="Group-3">
                    <mask id="mask-2" fill="white">
                        <use xlink:href="#path-1"></use>
                    </mask>
                    <g id="Clip-2"></g>
                    <path d="M254.640348,14.6743319 C253.46803,15.7635488 252.397257,16.9954645 251.105964,17.9173139 C245.10456,22.2009343 238.127487,23.2040006 231.020831,23.7987054 C222.787324,24.4882898 214.51138,24.934603 206.351759,26.1479223 C200.720541,26.9855187 195.255281,28.9434524 189.717651,30.4064946 C188.081559,30.8387657 186.45115,31.2926693 184.818089,31.7363259 C184.681685,31.4714223 184.54566,31.2061392 184.409634,30.9412355 C184.866588,30.4558319 185.243973,29.8394946 185.792242,29.5047596 C193.132302,25.0203741 201.014568,21.8813801 209.444345,20.1792416 C212.827547,19.4964886 216.244092,18.9780669 220.144114,18.2979705 C219.460199,17.741597 219.164657,17.3757416 218.782346,17.2083741 C207.677532,12.3490247 196.589389,7.4225006 184.511559,5.41598855 C182.149872,5.02356687 179.743097,4.66264518 177.360192,4.67972349 C165.493788,4.76625361 153.622837,4.81786807 141.764389,5.20991024 C132.870838,5.50327771 125.393238,9.50339819 118.783319,15.2534765 C117.211262,16.6208801 115.715363,18.0763319 114.195214,19.5033199 C112.803134,20.8107596 111.7119,22.1546331 111.523208,24.2898018 C111.303446,26.7779223 109.005793,28.4793018 106.454657,28.420856 C94.369627,28.1441873 82.3384012,28.8880428 70.3787875,30.5499524 C63.6313284,31.487362 56.9365364,32.8145367 50.2269673,34.01685 C46.2523016,34.7292054 42.2446716,35.3440247 38.3404814,36.3467114 C30.2854369,38.4154645 23.8316256,43.3393319 17.7699762,48.7379765 C14.6701917,51.4989705 11.9978068,54.7400548 9.10528083,57.7378681 C7.79428529,59.0973018 6.51587519,60.5201151 5.03399554,61.6704343 C4.18980535,62.325103 2.99058544,62.6901994 1.90579346,62.8272054 C0.0465289754,63.0628861 -0.394132243,62.3786151 0.33108321,60.6502898 C2.1035795,56.4247355 5.00330461,53.0193199 8.29064487,49.9258681 C18.7028291,40.127091 30.516945,32.6304705 44.3130892,28.641356 C49.1448276,27.24435 54.1626062,26.45685 59.1262021,25.5665006 C64.6539807,24.5751994 70.209419,23.7307717 75.7675097,22.9242958 C79.3250059,22.4081512 82.9056152,21.7606934 86.4816776,21.7246392 C96.1614473,21.6259645 104.54121,18.2827898 112.226447,12.5535849 C119.645697,7.02248855 128.200132,3.98178976 137.189545,2.11949458 C150.395741,-0.616071687 163.709545,0.267825904 177.001752,1.11453072 C185.528906,1.65762108 193.917762,3.14609096 202.03722,5.89266325 C207.353572,7.6911994 212.564211,9.82788614 217.935125,11.4351452 C228.786076,14.6826813 239.906804,15.1680849 251.131351,14.0796271 C252.168401,13.9786753 253.22326,14.0659645 254.269404,14.0659645 L254.640348,14.6743319 Z" id="Fill-1" fill="#277FC1" mask="url(#mask-2)"></path>
                </g>
                <g id="Group-6" transform="translate(189.000000, 16.000000)">
                    <mask id="mask-4" fill="white">
                        <use xlink:href="#path-3"></use>
                    </mask>
                    <g id="Clip-5"></g>
                    <path d="M73.9827845,0.466214286 C73.603199,2.15764286 73.4337275,3.92157143 72.7987845,5.5255 C71.5346497,8.71835714 69.3238518,11.3265714 66.3120902,13.2915714 C57.6034788,18.9737143 47.8017378,20.5208571 37.4727948,19.5662143 C26.0311679,18.5090714 14.6148466,17.2251429 3.08158238,17.6876429 C2.4451057,17.7133571 1.8044114,17.6769286 1.16716788,17.6419286 C0.995395855,17.6326429 0.829758549,17.5226429 0.305623834,17.3244286 C0.818639378,16.8576429 1.13726114,16.3783571 1.59583109,16.1797857 C7.86320933,13.4655 14.4821834,11.9869286 21.3588155,11.563 C30.7169399,10.9862143 40.1256756,10.8562143 49.4308881,9.86692857 C57.2162249,9.03942857 64.6396135,6.71264286 70.7563078,1.73978571 C71.5020591,1.13335714 72.3601523,0.645857143 73.1661005,0.103357143 C73.4383285,0.224428571 73.7105565,0.345142857 73.9827845,0.466214286" id="Fill-4" fill="#277FC1" mask="url(#mask-4)"></path>
                </g>
                <path d="M37.1467003,52.4024862 C37.0978687,57.1756466 39.7554902,59.7476673 44.4448013,59.4654506 C50.5235927,59.0994743 55.1222695,52.2044063 53.6902465,45.6715415 C53.1260938,43.097257 51.5553448,41.5171451 49.1085868,41.1217399 C47.5740915,40.8734797 45.8694256,40.9232826 44.377103,41.3432121 C39.8945863,42.6041323 37.2029306,46.8864318 37.1467003,52.4024862 M47.7194764,38.0000002 C53.1838038,37.9992456 56.8765068,40.4973165 57.7340189,44.7743338 C59.1497647,51.8342798 54.7671307,59.454509 48.075725,61.6462163 C47.3961522,61.8688204 46.806104,62.3766596 46.1746229,62.7520682 C46.765781,63.6485214 47.2045253,64.7438091 47.9984083,65.3757784 C48.5866069,65.8443789 49.6516531,65.6485627 50.4740213,65.8673939 C50.9752848,66.0009564 51.4192082,66.3593867 51.8890272,66.6170793 C51.5594141,67.2313157 51.3781453,68.1681394 50.8768818,68.4077218 C47.432036,70.0531058 43.3697668,68.1311645 42.3409742,64.362741 C41.9603099,62.9686356 41.3033032,62.3106329 39.8997654,62.0095515 C35.4068904,61.0459398 33.061125,58.0139963 33.0015653,53.3498742 C32.887255,44.4234493 39.0452128,38.0011321 47.7194764,38.0000002" id="Fill-7" fill="#277FC1"></path>
                <path d="M233.162519,60.9846265 C230.607624,60.983091 228.051961,60.9489256 225.49745,60.9972946 C224.194886,61.0218631 223.823711,60.532798 224.072567,59.2544725 C225.382033,52.5434558 226.666957,45.8270647 227.890148,39.099541 C228.169679,37.56056 228.843392,36.9689986 230.446577,37.0012446 C235.043701,37.0937601 239.643893,37.0250453 244.242934,37.0438555 C245.033215,37.0469265 246.025571,36.8488437 245.999497,38.179377 C245.97649,39.3436897 245.440817,39.9260379 244.228363,39.9183603 C240.842926,39.8972468 237.455955,39.9793975 234.072818,39.8941758 C232.393328,39.8519488 231.601897,40.4726852 231.466157,42.1594606 C231.374897,43.298821 231.055871,44.4209067 230.823503,45.547215 C230.588451,46.6900303 230.986084,47.2124931 232.204289,47.1967539 C235.142246,47.1587497 238.08097,47.1648918 241.018927,47.2051993 C241.823395,47.2163319 242.954559,46.8312987 242.967979,48.3203752 C242.980633,49.7322914 242.236366,50.1852716 240.90351,50.1603193 C238.094007,50.1065759 235.274918,50.2750999 232.475002,50.1023532 C230.519431,49.9821983 229.68237,50.7173314 229.486813,52.58146 C229.354141,53.8486529 229.108353,55.115462 228.781274,56.3473378 C228.417001,57.7181787 229.029363,58.0648237 230.232614,58.0590655 C233.745739,58.0429424 237.259247,58.0360326 240.771989,58.073653 C241.641259,58.0824822 242.85563,57.6955297 242.83339,59.2913252 C242.811917,60.7769466 241.875544,61.0195598 240.635866,60.9988302 C238.145389,60.957371 235.653762,60.986546 233.162519,60.9846265" id="Fill-9" fill="#277FC1"></path>
                <path d="M161.172547,60.9727652 C158.617027,60.9731493 156.06074,60.9339722 153.506371,60.9896652 C152.196398,61.0180878 151.825955,60.5268372 152.070617,59.2543483 C153.410884,52.2850425 154.672921,45.2992208 156.079148,38.3433581 C156.187289,37.8075532 157.194695,37.0893056 157.797144,37.0762466 C162.650485,36.9717742 167.507277,36.9817605 172.361384,37.0631875 C172.913214,37.0724057 173.453922,37.7395693 174,38.1017658 C173.46466,38.6936479 172.979939,39.7287693 172.385543,39.7963691 C170.429788,40.0183729 168.434151,39.8904711 166.45347,39.8954642 C165.623232,39.8977688 164.786093,39.8305531 163.963525,39.9108278 C162.610603,40.0425705 160.460422,39.8340099 160.080009,40.541887 C159.184963,42.2072995 159.080656,44.3209446 158.822957,46.2755766 C158.793045,46.5014213 159.809271,47.1102033 160.352664,47.1263351 C163.288981,47.2139075 166.23105,47.109051 169.165834,47.2215893 C169.778637,47.2454028 170.812503,47.8388213 170.879612,48.2862857 C171.051412,49.4289522 170.394891,50.1583384 169.058075,50.1387498 C165.992142,50.0945795 162.92314,50.1906019 159.859507,50.1030295 C158.316761,50.0592433 157.665994,50.6776275 157.500713,52.1636702 C157.345403,53.5582995 157.032099,54.9375653 156.739119,56.3129902 C156.467998,57.5881676 156.964223,58.0640547 158.231245,58.0517638 C161.744318,58.0171957 165.258542,58.026798 168.771998,58.056757 C169.605303,58.0640547 170.745777,57.7798284 170.748078,59.1894372 C170.749995,60.5360553 170.01026,61.04459 168.646216,60.9969629 C166.157806,60.9109268 163.664026,60.9727652 161.172547,60.9727652" id="Fill-11" fill="#277FC1"></path>
                <path d="M213.068891,37 C214.657992,37.267883 216.256132,37.3524003 217.710014,37.8437029 C218.76728,38.2008803 219.874264,38.9295662 220.507418,39.8041362 C220.995561,40.4784371 221.181628,41.8663578 220.784259,42.5241227 C220.221162,43.4567524 217.860299,42.9162093 217.163113,41.9031044 C215.94012,40.1256693 213.082451,39.4407119 209.940785,40.2171685 C209.278628,40.380691 208.452627,40.5236355 208.058271,40.9734144 C207.327564,41.8071957 206.410413,42.8651315 206.421336,43.8212791 C206.429999,44.6139042 207.508734,45.7714234 208.38031,46.1047154 C210.523091,46.9237981 212.827456,47.3346255 215.052348,47.9604208 C217.269329,48.5840113 219.478778,49.3468716 219.89272,51.9628651 C220.333405,54.7456882 219.33339,57.1856652 216.919418,58.6441395 C212.186392,61.5033956 207.103078,61.6625086 201.977203,59.6487926 C201.213726,59.3493075 200.474732,58.6856632 200.027268,58.0018082 C199.446092,57.1132744 198.303326,56.061218 199.582064,54.9591862 C200.692061,54.0023037 202.593408,54.5435817 203.397186,55.8855691 C203.428825,55.9384842 203.456321,55.9947066 203.493986,56.0428447 C205.235631,58.2509504 207.73209,58.2072219 210.17996,58.0374524 C212.409748,57.8820141 214.584168,57.3649889 215.670059,55.1190341 C216.522426,53.3555628 215.685879,51.7842764 213.429725,51.0640422 C211.587513,50.4760959 209.682401,50.0748226 207.80064,49.6066704 C203.833351,48.620758 202.272876,47.2174037 202.263083,44.6058199 C202.250653,41.4636146 204.428463,38.7847844 207.899324,37.8966181 C209.583717,37.4659474 211.337416,37.2917683 213.068891,37" id="Fill-13" fill="#277FC1"></path>
                <path d="M72.5183108,61 C71.1605522,60.753388 69.7746122,60.6120921 68.450093,60.2384262 C65.2843981,59.3453011 63.6072518,56.7288904 64.0783847,53.0589443 C64.5542144,49.3530184 65.3179988,45.687195 65.9596644,42.0045061 C66.162714,40.8381588 66.2411157,39.6200906 66.6414342,38.5302005 C66.8621874,37.9286622 67.582616,37.2131876 68.1635835,37.11949 C70.507325,36.7402023 70.7905828,37.1854531 70.3230629,39.5987275 C69.5180905,43.7570253 68.7319056,47.9209449 68.0230385,52.0979821 C67.4482131,55.4860859 69.1763024,57.698098 72.4662839,57.9626999 C76.5843609,58.2928901 79.9046914,55.689597 80.6879859,51.4863245 C81.4412927,47.4442117 82.1743668,43.3979762 82.9063569,39.3517407 C83.3066754,37.1378548 83.6882063,36.867631 85.7906005,37.0486547 C86.8481204,37.1397287 87.1386042,37.6254569 86.9431418,38.6377653 C86.0344768,43.3473795 85.2623826,48.0896005 84.2128113,52.7643592 C83.0992902,57.7239585 78.4511887,60.8294704 72.5183108,61" id="Fill-15" fill="#277FC1"></path>
                <path d="M150,37.537268 C146.532556,40.4430987 143.488208,43.0005331 140.437155,45.5496272 C138.190579,47.4261911 138.186482,47.4220209 139.858379,49.8638286 C142.224881,53.3201181 144.591756,56.7764076 146.975391,60.2569598 C144.53291,61.4405219 142.813713,61.010239 141.453924,59.0100873 C139.8662,56.6751869 138.314603,54.312991 136.663936,52.0247204 C136.163372,51.3309604 134.965968,50.2425533 134.805073,50.3593173 C133.799849,51.088713 132.608777,51.9633055 132.21436,53.0634648 C131.522361,54.9942406 131.394613,57.1293533 130.962952,59.1640035 C130.6501,60.6390964 128.554363,61.5470501 127.378933,60.6334099 C127.011332,60.3479447 126.939451,59.3914657 127.043362,58.7985474 C127.815064,54.3884327 128.667958,49.993103 129.489195,45.5917077 C129.905214,43.3599235 130.300748,41.1243483 130.721609,38.8937014 C131.009507,37.3666713 133.326102,36.4022312 134.477696,37.4201249 C134.798741,37.7040737 134.792037,38.5547826 134.702651,39.1067578 C134.274342,41.7612427 133.766702,44.4028381 133.286623,47.0486037 C133.435973,47.1517199 133.58495,47.254457 133.733927,47.3575733 C134.245291,47.0076604 134.794272,46.7039983 135.261316,46.30139 C138.336204,43.6488006 141.432695,41.0200948 144.440172,38.2901682 C146.000335,36.8738363 147.654354,37.0326808 150,37.537268" id="Fill-17" fill="#277FC1"></path>
                <path d="M171.947814,27.7317696 C159.70518,28.0643425 147.460293,28.3496161 135.221037,28.777157 C133.210946,28.8473669 131.176451,29.3931559 129.23469,29.9799623 C125.099623,31.230806 121.032511,31.5670741 117.035606,29.6263265 C115.512457,28.8865366 113.741894,27.8899265 114.031357,26.0548631 C114.326826,24.1817387 116.372208,23.8916612 118.036522,23.6289286 C119.756775,23.3576969 121.500306,23.2220811 123.235577,23.0476651 C125.349665,22.835188 127.276033,23.3488283 129.187384,24.2744895 C130.321205,24.8236043 131.668274,25.1288324 132.938003,25.1938688 C144.294981,25.7758714 155.657215,26.2632755 167.015319,26.8249541 C168.683387,26.9077278 170.33869,27.2354969 172,27.4498217 C171.982354,27.5436811 171.965084,27.6379101 171.947814,27.7317696" id="Fill-19" fill="#277FC1"></path>
                <path d="M187.497232,40.8740642 C187.032794,41.1385865 186.808928,41.1866121 186.730965,41.3223037 C185.068492,44.2133727 183.383373,47.0914823 181.793294,50.0240973 C181.216738,51.0871417 182.001568,51.3547132 182.857678,51.3630987 C184.526091,51.3794884 186.194875,51.3558567 187.863288,51.3737711 C188.907624,51.3848246 189.345703,50.914478 189.14634,49.8407612 C188.605424,46.9214867 188.071933,44.0010687 187.497232,40.8740642 M172,60.476922 C172.991247,58.75524 173.891536,57.1799218 174.802592,55.6114645 C178.057,50.0069453 181.311407,44.4024261 184.574354,38.8028619 C185.53293,37.1577922 186.89246,36.7289916 189.206483,37.1528372 C190.691868,37.4249827 190.476541,38.6664081 190.688156,39.6536023 C192.052512,46.0269134 193.40833,52.4021302 194.727022,58.7853513 C194.883319,59.5427084 195.522247,60.7380139 194.055796,60.8306349 C192.898227,60.904198 191.319658,61.5837993 190.886405,59.5754879 C190.606109,58.2768891 190.52072,56.9062517 190.047372,55.6911261 C189.803087,55.0641243 188.927301,54.3361162 188.295427,54.2930456 C185.897501,54.1287673 183.475815,54.120763 181.07826,54.2861848 C180.309766,54.3395466 179.409476,54.9554949 178.88638,55.5893574 C178.100436,56.5418665 177.595532,57.7383155 176.967371,58.8284219 C175.634571,61.1431829 174.967057,61.3920778 172,60.476922" id="Fill-21" fill="#277FC1"></path>
                <path d="M121.389299,55.0608158 C120.163285,57.1364505 118.357976,58.6063206 116.182792,59.6185265 C112.812856,61.1871303 109.282465,61.407982 105.734372,60.341955 C102.670657,59.4218015 100.627678,57.3981319 100.178705,54.2052475 C98.7202953,43.8359823 106.309148,34.4696437 118.527471,37.6198424 C120.491352,38.126131 122.037899,39.3083371 122.864281,41.1668319 C123.090651,41.6753476 123.024736,42.8074445 122.734335,42.9518332 C121.763318,43.433624 120.390032,44.5041051 119.584366,43.1255451 C117.861921,40.1772679 115.301795,39.490215 112.224144,39.9686651 C109.005247,40.4686436 106.626668,42.270348 105.538887,45.2828393 C104.7965,47.3402862 104.237543,49.5662485 104.168615,51.7343068 C104.019836,56.3996596 107.802963,59.2176529 112.353713,57.8416912 C114.074651,57.321669 115.723649,56.2252053 117.106351,55.0496804 C118.971548,53.4643736 119.308278,53.3066224 121.389299,55.0608158" id="Fill-23" fill="#277FC1"></path>
                <path d="M163.957638,7.49962439 C149.160732,10.1615253 134.52382,13.5216232 120.372939,19 C120.2485,18.786004 120.124439,18.5724096 120,18.3584136 C120.45199,17.7332885 120.827955,17.0202363 121.366939,16.4970904 C127.519299,10.5228693 134.810522,6.9431546 143.054896,6.24335169 C149.115344,5.72863721 155.250305,6.17790827 161.351225,6.25820694 C162.235915,6.26985025 163.116823,6.61874797 164,6.81146478 C163.985627,7.04071749 163.971632,7.27037168 163.957638,7.49962439" id="Fill-25" fill="#277FC1"></path>
                <path d="M89,60.5232887 C90.049143,54.7171164 91.0744085,49.0255345 92.1073882,43.3351024 C92.3917148,41.7695438 92.7737557,40.2193149 92.9750618,38.6430254 C93.2417558,36.5566358 94.7122458,37.0287945 95.9120011,37.0839819 C97.4555931,37.1548823 96.950491,38.3923827 96.8006135,39.2393557 C95.6052663,46.0090076 94.3761233,52.7721444 93.1267761,59.5314488 C92.8380414,61.0927918 91.669878,61.384825 89,60.5232887" id="Fill-27" fill="#277FC1"></path>
                <path d="M191,62.8838005 C191.621047,62.6449555 192.244393,62.1929613 192.862376,62.2013862 C196.734247,62.2553053 200.608035,62.3370265 204.474926,62.5543881 C208.790841,62.7961818 213.131275,63.634035 217.242984,61.3277274 C217.614233,61.1196331 218.075134,61.1044684 218.494657,61 C218.662849,61.1390103 218.831425,61.2775994 219,61.417031 C218.388148,62.5067876 218.002723,64.0017804 217.116552,64.5995248 C215.48137,65.7019188 213.583747,66.8198987 211.739379,66.9475355 C208.857888,67.1472049 205.894025,66.7508148 203.029391,66.200671 C199.025341,65.4314805 195.079909,64.2886472 191.109574,63.3058863 C191.073177,63.1651911 191.03678,63.0244958 191,62.8838005" id="Fill-29" fill="#277FC1"></path>
            </g>
        </g>
    </g>
</svg>