<?xml version="1.0" encoding="UTF-8"?>
<svg width="168px" height="44px" viewBox="0 0 168 44" version="1.1" xmlns="http://www.w3.org/2000/svg" xmlns:xlink="http://www.w3.org/1999/xlink">
    <!-- Generator: Sketch 54.1 (76490) - https://sketchapp.com -->
    <title>Group 31 Copy 2</title>
    <desc>Created with Sketch.</desc>
    <defs>
        <polygon id="path-1" points="0 0.173508049 162.770105 0.173508049 162.770105 39.9188774 0 39.9188774"></polygon>
        <polygon id="path-3" points="0.194112435 0.0671821429 46.9890415 0.0671821429 46.9890415 12.8888651 0.194112435 12.8888651"></polygon>
    </defs>
    <g id="Page-1" stroke="none" stroke-width="1" fill="none" fill-rule="evenodd">
        <g id="Home_page" transform="translate(-150.000000, -50.000000)">
            <g id="Group-31-Copy-2" transform="translate(150.000000, 50.000000)">
                <g id="Group-3">
                    <mask id="mask-2" fill="white">
                        <use xlink:href="#path-1"></use>
                    </mask>
                    <g id="Clip-2"></g>
                    <path d="M162.770105,9.31703614 C162.020741,10.0086024 161.336286,10.7907711 160.510871,11.3760723 C156.67468,14.0958313 152.214825,14.7326988 147.672139,15.1102892 C142.409152,15.5481205 137.119039,15.831494 131.903281,16.6018554 C128.303718,17.1336627 124.810238,18.3767952 121.270498,19.3057108 C120.224683,19.5801687 119.1825,19.8683614 118.138622,20.1500482 C118.05143,19.9818554 117.964481,19.8134217 117.877531,19.6452289 C118.169623,19.3370361 118.410853,18.9457108 118.761316,18.7331807 C123.453197,15.8859518 128.491665,13.8929398 133.880111,12.8122169 C136.042706,12.3787229 138.226616,12.0495663 140.719571,11.617759 C140.282402,11.264506 140.093486,11.0322169 139.849108,10.9259518 C132.750736,7.8406506 125.663021,4.7126988 117.942683,3.43872289 C116.433056,3.18956627 114.894607,2.96040964 113.371417,2.97125301 C105.786225,3.02619277 98.1981269,3.05896386 90.6180214,3.30787952 C84.9331239,3.49414458 80.1533245,6.03390361 75.9281611,9.68474699 C74.923277,10.5529398 73.9670749,11.4770361 72.9953721,12.3830602 C72.1055325,13.2131807 71.4079991,14.0664337 71.287384,15.4220964 C71.1469085,17.0018554 69.6782131,18.0820964 68.0474865,18.044988 C60.3225459,17.8693253 52.6319976,18.3416145 44.987225,19.3967952 C40.6741432,19.9919759 36.3947272,20.8346265 32.1058654,21.598 C29.5651967,22.0502892 27.0034568,22.4406506 24.5078371,23.0772771 C19.3589263,24.3907711 15.2335489,27.5170361 11.3588475,30.944747 C9.37741664,32.697759 7.66918633,34.7555904 5.82023834,36.6589639 C4.98222942,37.5220964 4.16504963,38.4254699 3.21780892,39.1558313 C2.6781893,39.571494 1.91162912,39.8033012 1.21821308,39.8902892 C0.029742051,40.0399277 -0.251935512,39.6054699 0.211633581,38.5081205 C1.34464101,35.8252289 3.19819079,33.6630602 5.29951025,31.6989639 C11.9551418,25.4775181 19.50691,20.717759 28.3256217,18.184988 C31.4141447,17.298 34.6215875,16.798 37.7943958,16.2326988 C41.3278386,15.6033012 44.878962,15.0671566 48.4317807,14.5551084 C50.7057881,14.2273976 52.9945697,13.8163133 55.2804449,13.7934217 C61.4679055,13.7307711 66.824381,11.6081205 71.7369055,7.97053012 C76.4794062,4.45872289 81.9475355,2.52812048 87.6937094,1.34571084 C96.1353171,-0.391156627 104.645709,0.170048193 113.142296,0.707638554 C118.592987,1.05245783 123.955275,1.99751807 129.14536,3.74137349 C132.543656,4.8833012 135.874378,6.23992771 139.30755,7.26040964 C146.243648,9.32233735 153.352192,9.63053012 160.527099,8.93944578 C161.189998,8.8753494 161.86428,8.93077108 162.532992,8.93077108 L162.770105,9.31703614 Z" id="Fill-1" fill="#277FC1" mask="url(#mask-2)"></path>
                </g>
                <g id="Group-6" transform="translate(121.000000, 10.000000)">
                    <mask id="mask-4" fill="white">
                        <use xlink:href="#path-3"></use>
                    </mask>
                    <g id="Clip-5"></g>
                    <path d="M46.9890658,0.303039286 C46.7479777,1.40246786 46.6403404,2.54902143 46.2370658,3.591575 C45.4341694,5.66693214 44.030014,7.36227143 42.1171383,8.63952143 C36.5859933,12.3329143 30.3605632,13.3385571 23.8002886,12.7180393 C16.5333093,12.0308964 9.28240259,11.1963429 1.95722124,11.4969679 C1.55297254,11.5136821 1.14604508,11.4900036 0.741309326,11.4672536 C0.632210881,11.4612179 0.527008808,11.3897179 0.194112435,11.2608786 C0.519946632,10.9574679 0.722314508,10.6459321 1.01356839,10.5168607 C4.99420052,8.752575 9.19814352,7.79150357 13.5657342,7.51595 C19.5094078,7.14103929 25.4852264,7.05653929 31.3952938,6.41350357 C36.3400347,5.87562857 41.0548896,4.36321786 44.9398171,1.13086071 C45.4134699,0.736682143 45.9584751,0.419807143 46.4703611,0.0671821429 C46.6432627,0.145878571 46.8161642,0.224342857 46.9890658,0.303039286" id="Fill-4" fill="#277FC1" mask="url(#mask-4)"></path>
                </g>
                <path d="M23.6538882,33.2919266 C23.622636,36.3713849 25.3235138,38.0307531 28.3246729,37.8486778 C32.2150993,37.6125641 35.1582525,33.1641331 34.2417577,28.9493816 C33.8807,27.2885529 32.8754206,26.2691259 31.3094956,26.0140257 C30.3274186,25.8538579 29.2364324,25.8859888 28.2813459,26.156911 C25.4125352,26.970408 23.6898756,29.7331818 23.6538882,33.2919266 M30.4204649,24.0000001 C33.9176345,23.9995133 36.2809644,25.6111719 36.8297721,28.3705379 C37.7358494,32.9253418 34.9309637,37.8416187 30.648464,39.2556234 C30.2135374,39.399239 29.8359066,39.7268772 29.4317587,39.9690763 C29.8100998,40.5474332 30.0908962,41.2540704 30.5989813,41.6617925 C30.9754284,41.9641154 31.657058,41.8377824 32.1833736,41.9789638 C32.5041823,42.0651331 32.7882933,42.2963785 33.0889774,42.4626318 C32.878025,42.8589134 32.762013,43.4633158 32.4412043,43.6178851 C30.2365031,44.6794231 27.6366507,43.439461 26.9782235,41.00822 C26.7345983,40.1087972 26.3141141,39.6842793 25.4158498,39.4900332 C22.5404098,38.8683482 21.03912,36.9122557 21.0010018,33.9031447 C20.9278432,28.1441609 24.8689362,24.0007304 30.4204649,24.0000001" id="Fill-7" fill="#277FC1"></path>
                <path d="M148.830694,38.9903916 C147.204851,38.9894319 145.578521,38.9680785 143.952923,38.9983091 C143.124019,39.0136644 142.887816,38.7079987 143.046179,37.9090453 C143.879475,33.7146599 144.697155,29.5169154 145.475548,25.3122131 C145.653432,24.35035 146.082159,23.9806241 147.102367,24.0007779 C150.02781,24.0586 152.955205,24.0156533 155.881867,24.0274097 C156.384773,24.0293291 157.016272,23.9055273 156.99968,24.7371106 C156.985039,25.464806 156.644156,25.8287737 155.872595,25.8239752 C153.718226,25.8107793 151.56288,25.8621234 149.409975,25.8088599 C148.341209,25.782468 147.837571,26.1704283 147.751191,27.2246629 C147.693117,27.9367631 147.4901,28.6380667 147.342229,29.3420094 C147.192651,30.056269 147.44569,30.3828082 148.220911,30.3729712 C150.09052,30.3492185 151.960617,30.3530574 153.830226,30.3782496 C154.342161,30.3852074 155.061992,30.1445617 155.070532,31.0752345 C155.078585,31.9576821 154.60496,32.2407947 153.756779,32.2251996 C151.968914,32.1916099 150.174948,32.2969374 148.393183,32.1889707 C147.148729,32.1138739 146.616054,32.5733321 146.491609,33.7384125 C146.407181,34.5304081 146.25077,35.3221637 146.042629,36.0920861 C145.810819,36.9488617 146.200504,37.1655148 146.966209,37.1619159 C149.201834,37.151839 151.437703,37.1475204 153.673084,37.1710331 C154.226256,37.1765514 154.999037,36.934706 154.984884,37.9320782 C154.97122,38.8605917 154.375346,39.0122249 153.58646,38.9992689 C152.001611,38.9733568 150.416031,38.9915912 148.830694,38.9903916" id="Fill-9" fill="#277FC1"></path>
                <path d="M102.837076,38.9829783 C101.210836,38.9832183 99.5841075,38.9587326 97.9585996,38.9935407 C97.1249808,39.0113049 96.8892443,38.7042732 97.0449378,37.9089677 C97.8978353,33.5531516 98.7009499,29.187013 99.5958212,24.8395988 C99.6646386,24.5047207 100.305715,24.055816 100.689092,24.0476541 C103.777581,23.9823589 106.868267,23.9886003 109.957244,24.0394922 C110.308409,24.0452535 110.652496,24.4622308 111,24.6886036 C110.659329,25.0585299 110.350871,25.7054808 109.972618,25.7477307 C108.728047,25.8864831 107.458096,25.8065444 106.197663,25.8096651 C105.66933,25.8111055 105.136604,25.7690957 104.613152,25.8192674 C103.752202,25.9016066 102.383905,25.7712562 102.141824,26.2136794 C101.572249,27.2545622 101.505872,28.5755904 101.341882,29.7972354 C101.322847,29.9383883 101.969536,30.3188771 102.315332,30.3289594 C104.183897,30.3836922 106.056123,30.3181569 107.923712,30.3884933 C108.313678,30.4033768 108.971593,30.7742633 109.014298,31.0539285 C109.123626,31.7680951 108.70584,32.2239615 107.855139,32.2117186 C105.90409,32.1841122 103.951089,32.2441262 102.001505,32.1893934 C101.019757,32.162027 100.605632,32.5485172 100.500454,33.4772939 C100.40162,34.3489372 100.202245,35.2109783 100.015803,36.0706189 C99.8432712,36.8676048 100.159051,37.1650342 100.965338,37.1573524 C103.20093,37.1357473 105.437254,37.1417487 107.67309,37.1604731 C108.203375,37.1650342 108.929131,36.9873927 108.930595,37.8683982 C108.931815,38.7100346 108.461074,39.0278687 107.593047,38.9981018 C106.009513,38.9443292 104.422562,38.9829783 102.837076,38.9829783" id="Fill-11" fill="#277FC1"></path>
                <path d="M135.952931,24 C136.964176,24.1674269 137.981175,24.2202502 138.906372,24.5273143 C139.579178,24.7505502 140.283623,25.2059788 140.686539,25.7525851 C140.997175,26.1740232 141.115581,27.0414736 140.86271,27.4525767 C140.504376,28.0354703 139.002008,27.6976308 138.558345,27.0644403 C137.780076,25.9535433 135.961559,25.525445 133.962318,26.0107303 C133.540945,26.1129319 133.015308,26.2022722 132.764355,26.483384 C132.299359,27.0044973 131.715717,27.6657072 131.722668,28.2632994 C131.728181,28.7586901 132.414649,29.4821396 132.969288,29.6904471 C134.332876,30.2023738 135.79929,30.459141 137.21513,30.850263 C138.625937,31.2400071 140.03195,31.7167948 140.295367,33.3517907 C140.575803,35.0910551 139.93943,36.6160408 138.403266,37.5275872 C135.391341,39.3146223 132.156504,39.4140679 128.894584,38.1554954 C128.408735,37.9683172 127.938466,37.5535395 127.653716,37.1261301 C127.283877,36.5707965 126.556662,35.9132613 127.370404,35.2244914 C128.076766,34.6264398 129.286714,34.9647386 129.798209,35.8034807 C129.818343,35.8365526 129.83584,35.8716916 129.859809,35.9017779 C130.968129,37.281844 132.556784,37.2545137 134.11452,37.1484077 C135.533476,37.0512588 136.917198,36.728118 137.60822,35.3243963 C138.150635,34.2222267 137.618286,33.2401727 136.182552,32.7900264 C135.010236,32.42256 133.797891,32.1717641 132.600408,31.879169 C130.075769,31.2629737 129.082739,30.3858773 129.076507,28.7536374 C129.068597,26.7897591 130.454476,25.1154902 132.663206,24.5603863 C133.735093,24.2912171 134.851083,24.1823552 135.952931,24" id="Fill-13" fill="#277FC1"></path>
                <path d="M46.5554201,39 C45.6699253,38.8458675 44.7660514,38.7575576 43.9022346,38.5240164 C41.8376509,37.9658132 40.7438599,36.3305565 41.0511204,34.0368402 C41.3614442,31.7206365 41.8595644,29.4294969 42.278042,27.1278163 C42.4104657,26.3988493 42.4615972,25.6375566 42.7226744,24.9563753 C42.8666439,24.5804139 43.3364887,24.1332423 43.7153805,24.0746813 C45.2439076,23.8376265 45.4286409,24.1159082 45.1237367,25.6242047 C44.5987547,28.2231408 44.0860254,30.8255905 43.6237208,33.4362388 C43.2488346,35.5538037 44.3758494,36.9363112 46.5214895,37.1016874 C49.2071919,37.3080563 51.3726248,35.6809981 51.8834691,33.0539528 C52.3747561,30.5276323 52.8528479,27.9987351 53.3302328,25.469838 C53.59131,24.0861592 53.8401345,23.9172694 55.2112612,24.0304092 C55.9009481,24.0873305 56.090394,24.3909105 55.9629186,25.0236033 C55.370311,27.9671122 54.8667712,30.9310003 54.1822682,33.8527245 C53.4560588,36.9524741 50.4246883,38.893419 46.5554201,39" id="Fill-15" fill="#277FC1"></path>
                <path d="M96,24.3357925 C93.7386236,26.1519367 91.7531789,27.7503332 89.763362,29.343517 C88.2982039,30.5163694 88.295532,30.5137631 89.3858992,32.0398929 C90.9292704,34.2000738 92.4728844,36.3602548 94.0274288,38.5355999 C92.4345066,39.2753262 91.3132914,39.0063994 90.4264724,37.7563046 C89.391,36.2969918 88.3790888,34.8206194 87.3025668,33.3904502 C86.9761124,32.9568502 86.1951967,32.2765958 86.090265,32.3495733 C85.4346844,32.8054456 84.657898,33.352066 84.4006695,34.0396655 C83.9493658,35.2464004 83.8660519,36.5808458 83.5845337,37.8525022 C83.3804997,38.7744353 82.0137151,39.3419063 81.2471304,38.7708812 C81.0073905,38.5924654 80.9605112,37.9946661 81.0282796,37.6240921 C81.5315634,34.8677704 82.0877988,32.1206894 82.623388,29.3698173 C82.8947046,27.9749522 83.1526618,26.5777177 83.427136,25.1835634 C83.6148959,24.2291695 85.1257187,23.6263945 85.876758,24.2625781 C86.0861357,24.440046 86.0817636,24.9717391 86.0234682,25.3167236 C85.7441359,26.9757767 85.4130666,28.6267738 85.0999716,30.2803773 C85.1973735,30.3448249 85.2945325,30.4090356 85.3916916,30.4734833 C85.7251899,30.2547878 86.083221,30.0649989 86.3878145,29.8133688 C88.3931768,28.1555004 90.4126272,26.5125592 92.3740251,24.8063551 C93.391523,23.9211477 94.4702311,24.0204255 96,24.3357925" id="Fill-17" fill="#277FC1"></path>
                <path d="M109.966709,17.957356 C102.156753,18.165214 94.3453591,18.3435101 86.5375581,18.6107231 C85.2552586,18.6546043 83.9573913,18.9957225 82.7186813,19.3624765 C80.0807942,20.1442537 77.4862571,20.3544213 74.9365071,19.1414541 C73.9648431,18.6790854 72.8353465,18.056204 73.0200034,16.9092894 C73.2084923,15.7385867 74.5133052,15.5572882 75.5750224,15.3930804 C76.6724256,15.2235606 77.784678,15.1388007 78.8916613,15.0297907 C80.2403032,14.8969925 81.4691936,15.2180177 82.6885039,15.796556 C83.4118032,16.1397527 84.2711403,16.3305202 85.0811398,16.371168 C92.3261085,16.7349196 99.5744302,17.0395472 106.820117,17.3905963 C107.88423,17.4423299 108.940199,17.6471856 110,17.7811385 C109.988743,17.8398007 109.977726,17.8986938 109.966709,17.957356" id="Fill-19" fill="#277FC1"></path>
                <path d="M120.106891,26.4212901 C119.803996,26.5866166 119.657997,26.6166326 119.607151,26.7014398 C118.52293,28.5083579 117.423939,30.3071765 116.386931,32.1400608 C116.010916,32.8044635 116.522761,32.9716958 117.081094,32.9769367 C118.16919,32.9871802 119.257527,32.9724104 120.345623,32.9836069 C121.026711,32.9905154 121.312415,32.6965487 121.182396,32.0254758 C120.829624,30.2009292 120.481695,28.375668 120.106891,26.4212901 M110,38.6730763 C110.646465,37.597025 111.233611,36.6124511 111.827778,35.6321653 C113.950217,32.1293408 116.072657,28.6265163 118.200666,25.1267887 C118.825824,24.0986202 119.712474,23.8306198 121.221619,24.0955233 C122.190349,24.2656142 122.049918,25.041505 122.187928,25.6585015 C123.077725,29.6418209 123.961954,33.6263314 124.821971,37.6158446 C124.923904,38.0891928 125.340596,38.8362587 124.384214,38.8941468 C123.629279,38.9401238 122.599777,39.3648746 122.317221,38.1096799 C122.134419,37.2980557 122.078731,36.4414073 121.770025,35.6819538 C121.610709,35.2900777 121.039544,34.8350726 120.627452,34.8081535 C119.063588,34.7054796 117.484227,34.7004769 115.920605,34.8038655 C115.419412,34.8372166 114.832267,35.2221843 114.491117,35.6183484 C113.978546,36.2136666 113.64926,36.9614472 113.23959,37.6427637 C112.370372,39.0894893 111.935037,39.2450486 110,38.6730763" id="Fill-21" fill="#277FC1"></path>
                <path d="M77.9495426,35.2880099 C77.1499688,36.5852816 75.9725932,37.5039504 74.5539945,38.1365791 C72.3562104,39.1169564 70.0537816,39.2549887 67.7398075,38.5887219 C65.7417327,38.0136259 64.4093553,36.7488324 64.1165467,34.7532797 C63.16541,28.272489 68.1146615,22.4185273 76.0831334,24.3874015 C77.3639254,24.7038319 78.372543,25.4427107 78.9114877,26.60427 C79.0591202,26.9220922 79.0161324,27.6296528 78.8267402,27.7198958 C78.1934679,28.021015 77.297847,28.6900657 76.7724127,27.8284657 C75.649079,25.9857924 73.9794313,25.5563844 71.9722676,25.8554157 C69.872987,26.1679023 68.3217401,27.2939675 67.6123179,29.1767745 C67.128152,30.4626789 66.7636151,31.8539053 66.7186621,33.2089418 C66.6216324,36.1247872 69.0888888,37.8860331 72.0567694,37.026057 C73.1791205,36.7010431 74.2545535,36.0157533 75.1563155,35.2810503 C76.3727486,34.2902335 76.5923551,34.191639 77.9495426,35.2880099" id="Fill-23" fill="#277FC1"></path>
                <path d="M104.973042,4.92284578 C95.5568297,6.56093866 86.242431,8.6286912 77.2373249,12 C77.1581363,11.8683102 77.0791885,11.7368674 77,11.6051776 C77.28763,11.2204852 77.5268804,10.7816839 77.8698702,10.459748 C81.7850082,6.78330421 86.4248775,4.58040283 91.6712972,4.14975488 C95.5279464,3.83300751 99.4320124,4.10948201 103.314416,4.15889658 C103.8774,4.16606169 104.437978,4.38076798 105,4.49936294 C104.990854,4.64044153 104.981948,4.78176719 104.973042,4.92284578" id="Fill-25" fill="#277FC1"></path>
                <path d="M57,38.7020554 C57.6557144,35.0731977 58.2965053,31.5159591 58.9421176,27.959439 C59.1198218,26.9809648 59.3585973,26.0120718 59.4844137,25.0268909 C59.6510973,23.7228974 60.5701536,24.0179966 61.3200007,24.0524887 C62.2847457,24.0968015 61.9690569,24.8702392 61.8753834,25.3995973 C61.1282915,29.6306298 60.3600771,33.8575903 59.5792351,38.0821555 C59.3987759,39.0579948 58.6686737,39.2405156 57,38.7020554" id="Fill-27" fill="#277FC1"></path>
                <path d="M122,40.255867 C122.399245,40.096637 122.799967,39.7953075 123.197241,39.8009241 C125.686302,39.8368702 128.176594,39.891351 130.662452,40.0362588 C133.436969,40.1974546 136.227248,40.7560233 138.87049,39.2184849 C139.10915,39.0797554 139.405443,39.0696456 139.675136,39 C139.78326,39.0926735 139.89163,39.1850663 140,39.2780206 C139.606666,40.0045251 139.358893,41.001187 138.789212,41.3996832 C137.738024,42.1346125 136.518123,42.8799325 135.332458,42.9650237 C133.480071,43.0981366 131.57473,42.8338766 129.73318,42.467114 C127.159148,41.9543203 124.622799,41.1924315 122.07044,40.5372576 C122.047042,40.4434607 122.023644,40.3496638 122,40.255867" id="Fill-29" fill="#277FC1"></path>
            </g>
        </g>
    </g>
</svg>