<?xml version="1.0" encoding="UTF-8"?>
<svg width="1441px" height="740px" viewBox="0 0 1441 740" version="1.1" xmlns="http://www.w3.org/2000/svg" xmlns:xlink="http://www.w3.org/1999/xlink">
    <!-- Generator: Sketch 54.1 (76490) - https://sketchapp.com -->
    <title>Group 18</title>
    <desc>Created with Sketch.</desc>
    <g id="Page-1" stroke="none" stroke-width="1" fill="none" fill-rule="evenodd" opacity="0.174595424">
        <g id="Group-18" fill="#C5E0FF">
            <path d="M0,79.4620703 C167.756741,157.307048 315.756741,194.694578 444,191.624659 C676.63117,188.556866 830.569623,68.9018849 978,60.5323215 C1116.98296,52.6423143 1065.75482,174.758248 1194.38356,129.557792 C1250.43986,109.859473 1332.312,72.3402096 1440,17 L1440,302.428518 L1440,668.899276 C1331.13633,634.756721 1254.13633,614.617277 1209,608.480944 C963.719185,575.134745 767.817257,698.606832 602.257656,704.36701 C480.503885,708.603088 332.961819,581.766628 216.137503,608.480944 C158.883373,621.573294 86.8375384,658.41298 0,719 L0,79.4620703 Z" id="Path-3"></path>
            <path d="M1,62.4620703 C168.756741,140.307048 316.756741,177.694578 445,174.624659 C677.63117,171.556866 831.569623,51.9018849 979,43.5323215 C1117.98296,35.6423143 1066.75482,157.758248 1195.38356,112.557792 C1251.43986,92.8594735 1333.312,55.3402096 1441,0 L1441,285.428518 L1441,651.899276 C1332.13633,617.756721 1255.13633,597.617277 1210,591.480944 C964.719185,558.134745 768.817257,681.606832 603.257656,687.36701 C481.503885,691.603088 333.961819,564.766628 217.137503,591.480944 C159.883373,604.573294 87.8375384,641.41298 1,702 L1,62.4620703 Z" id="Path-3-Copy"></path>
            <path d="M1,100.46207 C168.756741,178.307048 316.756741,215.694578 445,212.624659 C677.63117,209.556866 831.569623,89.9018849 979,81.5323215 C1117.98296,73.6423143 1066.75482,195.758248 1195.38356,150.557792 C1251.43986,130.859473 1333.312,93.3402096 1441,38 L1441,323.428518 L1441,689.899276 C1332.13633,655.756721 1255.13633,635.617277 1210,629.480944 C964.719185,596.134745 768.817257,719.606832 603.257656,725.36701 C481.503885,729.603088 333.961819,602.766628 217.137503,629.480944 C159.883373,642.573294 87.8375384,679.41298 1,740 L1,100.46207 Z" id="Path-3-Copy"></path>
        </g>
    </g>
</svg>